<?xml version="1.0" encoding="utf-8"?>
<!-- Generator: Adobe Illustrator 19.0.0, SVG Export Plug-In . SVG Version: 6.00 Build 0)  -->
<svg version="1.1" id="YT" xmlns="http://www.w3.org/2000/svg" xmlns:xlink="http://www.w3.org/1999/xlink" x="0px" y="0px"
	 viewBox="0 0 283.5 283.5" style="enable-background:new 0 0 283.5 283.5;fill: rgb(45,45,45)" xml:space="preserve">
<path id="XMLID_1_" d="M276.7,73.3c-3.2-12.2-12.8-21.8-24.9-25.1c-22-5.9-110.2-5.9-110.2-5.9s-88.2,0-110.2,5.9
	C19.3,51.5,9.8,61.1,6.5,73.3c-5.9,22.1-5.9,68.3-5.9,68.3s0,46.2,5.9,68.3c3.2,12.2,12.8,21.8,24.9,25.1
	c22,5.9,110.2,5.9,110.2,5.9s88.2,0,110.2-5.9c12.1-3.3,21.7-12.9,24.9-25.1c5.9-22.1,5.9-68.3,5.9-68.3S282.6,95.4,276.7,73.3z
	 M112.8,183.6V99.7l73.7,41.9L112.8,183.6z"/>
</svg>
