<?xml version="1.0" encoding="utf-8"?>
<!-- Generator: Adobe Illustrator 19.0.0, SVG Export Plug-In . SVG Version: 6.00 Build 0)  -->
<svg version="1.1" id="TW" xmlns="http://www.w3.org/2000/svg" xmlns:xlink="http://www.w3.org/1999/xlink" x="0px" y="0px"
	 viewBox="0 0 283.5 283.5" style="enable-background:new 0 0 283.5 283.5;fill: rgb(45,45,45)" xml:space="preserve">
<path id="XMLID_19_" d="M89.8,255.8c106,0,164-87.9,164-164c0-2.5-0.1-5-0.2-7.5c11.3-8.1,21-18.3,28.8-29.9
	c-10.3,4.6-21.4,7.7-33.1,9.1c11.9-7.1,21-18.4,25.4-31.9c-11.1,6.6-23.5,11.4-36.6,14c-10.5-11.2-25.5-18.2-42.1-18.2
	c-31.8,0-57.7,25.8-57.7,57.6c0,4.5,0.5,8.9,1.5,13.1C91.9,95.8,49.4,72.9,21,38c-5,8.5-7.8,18.4-7.8,29c0,20,10.2,37.7,25.7,48
	c-9.5-0.3-18.3-2.9-26.1-7.2c0,0.2,0,0.5,0,0.7c0,27.9,19.9,51.2,46.3,56.5c-4.8,1.3-9.9,2-15.2,2c-3.7,0-7.3-0.4-10.8-1
	c7.3,22.9,28.6,39.6,53.9,40c-19.7,15.5-44.6,24.7-71.6,24.7c-4.7,0-9.2-0.3-13.8-0.8C26.9,246.3,57.2,255.8,89.8,255.8"/>
</svg>
