<?xml version="1.0" encoding="utf-8"?>
<!-- Generator: Adobe Illustrator 19.0.0, SVG Export Plug-In . SVG Version: 6.00 Build 0)  -->
<svg version="1.1" id="FB" xmlns="http://www.w3.org/2000/svg" xmlns:xlink="http://www.w3.org/1999/xlink" x="0px" y="0px"
	 viewBox="0 0 283.5 283.5" style="enable-background:new 0 0 283.5 283.5;fill: rgb(45,45,45)" xml:space="preserve">
<path id="XMLID_18_" d="M267.1,0.7h-251C7.6,0.7,0.7,7.7,0.7,16.2v251c0.1,8.6,7,15.5,15.6,15.5h135.1v-109h-36.7v-42.7h36.7V99.5
	c0-36.4,22.2-56.4,54.7-56.4c11,0,21.9,0.5,32.8,1.7V83h-22.6c-17.6,0-21,8.5-21,20.7v27.2h42.3l-5.6,42.7h-36.7v109h71.9
	c8.6,0,15.6-7,15.6-15.6v-251C282.6,7.6,275.7,0.7,267.1,0.7z"/>
</svg>
